<svg width="150" height="257" viewBox="0 0 150 257" fill="none" xmlns="http://www.w3.org/2000/svg">
<rect x="1" y="1" width="148" height="255" rx="9" fill="white" stroke="black" stroke-width="2"/>
<rect x="56.5" y="51.5" width="79" height="15" rx="5.5" fill="white" stroke="#D1D3D4"/>
<rect x="56.5" y="81.5" width="63" height="15" rx="5.5" fill="white" stroke="#D1D3D4"/>
<rect x="56.5" y="111.5" width="76" height="15" rx="5.5" fill="white" stroke="#D1D3D4"/>
<rect x="56.5" y="141.5" width="79" height="14" rx="5.5" fill="white" stroke="#D1D3D4"/>
<rect x="56.5" y="170.5" width="54" height="16" rx="5.5" fill="white" stroke="#D1D3D4"/>
<rect x="32.5" y="210.5" width="84" height="18" rx="5.5" fill="#2035F4" stroke="#305DFC"/>
<rect x="15" y="83" width="29" height="13" rx="6.5" fill="#D9D9D9"/>
<rect x="15" y="51" width="35" height="13" rx="6.5" fill="#D9D9D9"/>
<rect x="15" y="112" width="27" height="13" rx="6.5" fill="#D9D9D9"/>
<rect x="13" y="141" width="37" height="13" rx="6.5" fill="#D9D9D9"/>
<rect x="15" y="172" width="29" height="11" rx="5.5" fill="#D9D9D9"/>
<rect x="15" y="12" width="11" height="2" rx="1" fill="#1D1414"/>
<rect x="15" y="15" width="11" height="2" rx="1" fill="#1D1414"/>
<rect x="56" y="12" width="44" height="3" rx="1.5" fill="#1D1414"/>
<rect x="15" y="18" width="11" height="2" rx="1" fill="#1D1414"/>
<circle cx="84" cy="242" r="4" fill="#403F3F"/>
<circle cx="71" cy="242" r="3.5" stroke="#C1C0C0"/>
</svg>
