<svg width="546" height="592" viewBox="0 0 546 592" fill="none" xmlns="http://www.w3.org/2000/svg">
<path d="M4 213C4 160.533 46.5329 118 99 118H127C179.467 118 222 160.533 222 213V296H4V213Z" fill="#D4833D"/>
<ellipse cx="106.5" cy="64" rx="62.5" ry="64" fill="#D4833D"/>
<path d="M328 509C328 456.533 370.533 414 423 414H451C503.467 414 546 456.533 546 509V592H328V509Z" fill="#D4833D"/>
<ellipse cx="430.5" cy="360" rx="62.5" ry="64" fill="#D4833D"/>
<path d="M369.66 95.5714H250V64H382.255C435.157 74.1029 456.78 118.724 460.979 139.771V199.757L517.66 158.714L546 190.286L438.936 285L347.617 190.286L382.255 158.714L426.34 199.757C438.936 131.563 393.801 101.886 369.66 95.5714Z" fill="#D4833D"/>
<path d="M176.939 536.931L296.574 539.333L295.94 570.898L163.712 568.243C111.023 557.08 90.3005 512.034 86.5253 490.907L87.7297 430.933L30.2362 470.83L2.53537 438.695L111.479 346.15L200.878 442.678L165.613 473.548L122.361 431.628C108.399 499.556 152.928 530.133 176.939 536.931Z" fill="#D4833D"/>
</svg>
