<svg width="385" height="325" viewBox="0 0 385 325" fill="none" xmlns="http://www.w3.org/2000/svg">
<path d="M1.47495 195C-5.88579 153.677 16.0882 125.115 27.9953 116C75.1907 158.295 122.711 133.623 140.571 116C165.684 142.252 168.355 179.605 166.55 195H1.47495Z" fill="#52AEF9"/>
<circle cx="77" cy="58" r="58" fill="#52AEF9"/>
<path d="M219.475 305C212.114 263.677 234.088 235.115 245.995 226C293.191 268.295 340.711 243.623 358.571 226C383.684 252.252 386.355 289.605 384.55 305H219.475Z" fill="#52AEF9"/>
<circle cx="295" cy="168" r="58" fill="#52AEF9"/>
<path d="M33 298V219H52.5V277.5H129L116 265L130 250.5L167 288L130 325L116 311L127.5 298H33Z" fill="#52AEF9"/>
</svg>
