<svg width="359" height="303" viewBox="0 0 359 303" fill="none" xmlns="http://www.w3.org/2000/svg">
<rect x="210" y="47" width="148" height="255" rx="9" fill="white" stroke="black" stroke-width="2"/>
<rect x="265.5" y="97.5" width="79" height="15" rx="5.5" fill="white" stroke="#D1D3D4"/>
<rect x="265.5" y="127.5" width="63" height="15" rx="5.5" fill="white" stroke="#D1D3D4"/>
<rect x="265.5" y="157.5" width="76" height="15" rx="5.5" fill="white" stroke="#D1D3D4"/>
<rect x="265.5" y="187.5" width="79" height="14" rx="5.5" fill="white" stroke="#D1D3D4"/>
<rect x="265.5" y="216.5" width="54" height="16" rx="5.5" fill="white" stroke="#D1D3D4"/>
<rect x="241.5" y="256.5" width="84" height="18" rx="5.5" fill="#2035F4" stroke="#305DFC"/>
<rect x="224" y="129" width="29" height="13" rx="6.5" fill="#D9D9D9"/>
<rect x="224" y="97" width="35" height="13" rx="6.5" fill="#D9D9D9"/>
<rect x="224" y="158" width="27" height="13" rx="6.5" fill="#D9D9D9"/>
<rect x="222" y="187" width="37" height="13" rx="6.5" fill="#D9D9D9"/>
<rect x="224" y="218" width="29" height="11" rx="5.5" fill="#D9D9D9"/>
<rect x="224" y="58" width="11" height="2" rx="1" fill="#1D1414"/>
<rect x="224" y="61" width="11" height="2" rx="1" fill="#1D1414"/>
<rect x="265" y="58" width="44" height="3" rx="1.5" fill="#1D1414"/>
<rect x="224" y="64" width="11" height="2" rx="1" fill="#1D1414"/>
<circle cx="293" cy="288" r="4" fill="#403F3F"/>
<circle cx="280" cy="288" r="3.5" stroke="#C1C0C0"/>
<path d="M10 0.5H10.0252C4.78045 1.08529 0.702703 5.53379 0.702703 10.9347V262C0.702703 262.493 0.736619 262.977 0.802244 263.452C0.604959 262.689 0.5 261.889 0.5 261.065V9.99999C0.5 4.75329 4.75329 0.5 10 0.5ZM168 271.5H167.975C173.219 270.915 177.297 266.466 177.297 261.065V10C177.297 9.5074 177.263 9.02271 177.198 8.54816C177.395 9.31073 177.5 10.1105 177.5 10.9347V262C177.5 267.247 173.247 271.5 168 271.5ZM168 1.43471C169.922 1.43471 171.71 2.00521 173.205 2.98608C175.105 4.72318 176.297 7.22238 176.297 10V261.065C176.297 266.312 172.044 270.565 166.797 270.565H10C8.0784 270.565 6.29005 269.995 4.79511 269.014C2.89473 267.277 1.7027 264.778 1.7027 262V10.9347C1.7027 5.688 5.956 1.43471 11.2027 1.43471H168Z" fill="white" stroke="black"/>
<rect x="50" y="146" width="85" height="12" rx="6" fill="#BC5959"/>
<rect x="50" y="146" width="85" height="12" rx="6" fill="#B24D4D"/>
<rect x="37" y="167" width="110" height="11" rx="5.5" fill="#B34D4D"/>
<rect x="50" y="187" width="85" height="1" fill="#D9D9D9"/>
<rect width="85" height="2" transform="matrix(1 0 0 -1 50 189)" fill="#B24D4D"/>
<rect width="85" height="2" transform="matrix(1 0 0 -1 50 197)" fill="#B24D4D"/>
<rect width="69" height="2" transform="matrix(1 0 0 -1 58 205)" fill="#B24D4D"/>
<rect x="49" y="218" width="86" height="20" rx="10" fill="#541BF4"/>
<circle cx="86" cy="252" r="4" fill="black"/>
<circle cx="99" cy="252" r="3.5" stroke="#D1D3D4"/>
<path d="M176 99.896C102.198 148.984 31.9158 120.349 6 99.896C10.2548 99.2199 22.1297 98.2733 35.5904 99.896C52.4164 101.924 42.5529 99.896 51.256 101.924C59.959 103.953 86.6485 104.46 100.573 105.474C111.713 106.286 155.499 102.093 176 99.896Z" fill="#1D52FF"/>
<path d="M27.2872 105.601C11.6332 101.434 8.02076 100.914 2 94.6635C12.436 93.7955 36.5592 90.9135 49.564 86.3301C65.8201 80.6009 76.6574 87.3718 116.997 86.3301C149.268 85.4968 169.779 94.6635 176 99.3511L175.398 100.393L164.561 102.997C163.557 103.865 159.262 106.226 150.111 108.726C138.671 111.851 132.048 110.81 116.997 113.414C101.945 116.018 89.9031 114.976 66.4221 113.414C42.9412 111.851 42.9412 109.768 27.2872 105.601Z" fill="#1D52FF"/>
<path d="M2 10C2 5.58172 5.58172 2 10 2H168C172.418 2 176 5.58172 176 10V99H2V10Z" fill="#1D52FF"/>
<path d="M72 16.5C72 15.6716 72.6716 15 73.5 15H105.5C106.328 15 107 15.6716 107 16.5V16.5C107 17.3284 106.328 18 105.5 18H73.5C72.6716 18 72 17.3284 72 16.5V16.5Z" fill="#0E0E10"/>
<path d="M72 16.5C72 15.6716 72.6716 15 73.5 15H105.5C106.328 15 107 15.6716 107 16.5V16.5C107 17.3284 106.328 18 105.5 18H73.5C72.6716 18 72 17.3284 72 16.5V16.5Z" fill="#0E0E10"/>
<path d="M72 16.5C72 15.6716 72.6716 15 73.5 15H105.5C106.328 15 107 15.6716 107 16.5V16.5C107 17.3284 106.328 18 105.5 18H73.5C72.6716 18 72 17.3284 72 16.5V16.5Z" fill="#FEFEFF"/>
<path d="M11 24C11 23.4477 11.4477 23 12 23H21C21.5523 23 22 23.4477 22 24V24C22 24.5523 21.5523 25 21 25H12C11.4477 25 11 24.5523 11 24V24Z" fill="#0E0E10"/>
<path d="M11 24C11 23.4477 11.4477 23 12 23H21C21.5523 23 22 23.4477 22 24V24C22 24.5523 21.5523 25 21 25H12C11.4477 25 11 24.5523 11 24V24Z" fill="#0E0E10"/>
<path d="M11 24C11 23.4477 11.4477 23 12 23H21C21.5523 23 22 23.4477 22 24V24C22 24.5523 21.5523 25 21 25H12C11.4477 25 11 24.5523 11 24V24Z" fill="#0E0E10"/>
<path d="M11 21C11 20.4477 11.4477 20 12 20H21C21.5523 20 22 20.4477 22 21V21C22 21.5523 21.5523 22 21 22H12C11.4477 22 11 21.5523 11 21V21Z" fill="#0E0E10"/>
<path d="M11 21C11 20.4477 11.4477 20 12 20H21C21.5523 20 22 20.4477 22 21V21C22 21.5523 21.5523 22 21 22H12C11.4477 22 11 21.5523 11 21V21Z" fill="#0E0E10"/>
<path d="M11 21C11 20.4477 11.4477 20 12 20H21C21.5523 20 22 20.4477 22 21V21C22 21.5523 21.5523 22 21 22H12C11.4477 22 11 21.5523 11 21V21Z" fill="#0E0E10"/>
<path d="M11 18C11 17.4477 11.4477 17 12 17H21C21.5523 17 22 17.4477 22 18V18C22 18.5523 21.5523 19 21 19H12C11.4477 19 11 18.5523 11 18V18Z" fill="#0E0E10"/>
<path d="M11 18C11 17.4477 11.4477 17 12 17H21C21.5523 17 22 17.4477 22 18V18C22 18.5523 21.5523 19 21 19H12C11.4477 19 11 18.5523 11 18V18Z" fill="#0E0E10"/>
<path d="M11 18C11 17.4477 11.4477 17 12 17H21C21.5523 17 22 17.4477 22 18V18C22 18.5523 21.5523 19 21 19H12C11.4477 19 11 18.5523 11 18V18Z" fill="#0E0E10"/>
</svg>
