<svg width="512" height="512" viewBox="0 0 512 512" fill="none" xmlns="http://www.w3.org/2000/svg">
<circle cx="256" cy="256" r="256" fill="#FF8717"/>
<path d="M379.238 314.086C395.776 330.596 395.799 357.387 379.289 373.925V373.925C362.779 390.463 335.988 390.486 319.45 373.976L133.945 188.784C117.407 172.274 117.384 145.483 133.894 128.945V128.945C150.404 112.407 177.195 112.384 193.733 128.894L379.238 314.086Z" fill="white"/>
<path d="M379.238 314.086C395.776 330.596 395.799 357.387 379.289 373.925V373.925C362.779 390.463 335.988 390.486 319.45 373.976L133.945 188.784C117.407 172.274 117.384 145.483 133.894 128.945V128.945C150.404 112.407 177.195 112.384 193.733 128.894L379.238 314.086Z" fill="white"/>
<path d="M379.238 314.086C395.776 330.596 395.799 357.387 379.289 373.925V373.925C362.779 390.463 335.988 390.486 319.45 373.976L133.945 188.784C117.407 172.274 117.384 145.483 133.894 128.945V128.945C150.404 112.407 177.195 112.384 193.733 128.894L379.238 314.086Z" fill="white"/>
<path d="M379.238 314.086C395.776 330.596 395.799 357.387 379.289 373.925V373.925C362.779 390.463 335.988 390.486 319.45 373.976L133.945 188.784C117.407 172.274 117.384 145.483 133.894 128.945V128.945C150.404 112.407 177.195 112.384 193.733 128.894L379.238 314.086Z" fill="white"/>
<path d="M202.866 383.67C187.718 401.464 161.013 403.609 143.219 388.461V388.461C125.425 373.314 123.28 346.609 138.427 328.815L308.339 129.218C323.486 111.424 350.191 109.279 367.985 124.427V124.427C385.779 139.574 387.925 166.279 372.777 184.073L202.866 383.67Z" fill="white"/>
<path d="M202.866 383.67C187.718 401.464 161.013 403.609 143.219 388.461V388.461C125.425 373.314 123.28 346.609 138.427 328.815L308.339 129.218C323.486 111.424 350.191 109.279 367.985 124.427V124.427C385.779 139.574 387.925 166.279 372.777 184.073L202.866 383.67Z" fill="white"/>
<path d="M202.866 383.67C187.718 401.464 161.013 403.609 143.219 388.461V388.461C125.425 373.314 123.28 346.609 138.427 328.815L308.339 129.218C323.486 111.424 350.191 109.279 367.985 124.427V124.427C385.779 139.574 387.925 166.279 372.777 184.073L202.866 383.67Z" fill="white"/>
<path d="M202.866 383.67C187.718 401.464 161.013 403.609 143.219 388.461V388.461C125.425 373.314 123.28 346.609 138.427 328.815L308.339 129.218C323.486 111.424 350.191 109.279 367.985 124.427V124.427C385.779 139.574 387.925 166.279 372.777 184.073L202.866 383.67Z" fill="white"/>
</svg>
