<svg width="367" height="361" viewBox="0 0 367 361" fill="none" xmlns="http://www.w3.org/2000/svg">
<path d="M367 180.5C367 280.187 284.844 361 183.5 361C82.1557 361 0 280.187 0 180.5C0 80.8126 82.1557 0 183.5 0C284.844 0 367 80.8126 367 180.5Z" fill="white"/>
<path d="M288 328.5V297.5H281.5L286.5 328.5L287.5 329.5L288 329V328.5Z" fill="#5CB9BD"/>
<path d="M287.5 329.5C202.7 385.1 112.667 353.167 79 329L80.5 287C88.1 253 118.333 240.5 132.5 238.5H243C281.4 241.3 288.667 265.333 287.5 277V329.5Z" fill="#5CB9BD"/>
<circle cx="183" cy="139" r="74" fill="#5CB9BD"/>
<rect x="80" y="238" width="208" height="98" rx="40" fill="#5CB9BD"/>
</svg>
